<?xml version="1.0" encoding="UTF-8"?>
<svg width="512px" height="512px" viewBox="0 0 512 512" version="1.1" xmlns="http://www.w3.org/2000/svg" xmlns:xlink="http://www.w3.org/1999/xlink">
    <!-- Generator: Sketch 52.6 (67491) - http://www.bohemiancoding.com/sketch -->
    <title>Untitled</title>
    <desc>Created with Sketch.</desc>
    <g id="Page-1" stroke="none" stroke-width="1" fill="none" fill-rule="evenodd">
        <path d="M448,0 C483.285156,0 512,28.7148441 512,64 L512,448 C512,483.285156 483.285156,512 448,512 L64,512 C28.7148441,512 0,483.285156 0,448 L0,64 C0,28.714844 28.714844,0 64,0 L448,0 Z M448,45 L64,45 C53.5676578,45 45,53.5676578 45,64 L45,448 C45,458.432342 53.5676578,467 64,467 L448,467 C458.432342,467 467,458.432342 467,448 L467,64 C467,53.5676578 458.432342,45 448,45 Z" id="Path" fill="#000000" fill-rule="nonzero"></path>
        <path d="M144.376045,107 L107,107 L107,163.062357 C107,173.379008 115.373083,181.752091 125.689734,181.752091 L181.752091,181.752091 L181.752091,144.376045 L144.376045,144.376045 L144.376045,107 Z" id="Path" fill="#000000"></path>
        <path d="M256.376045,107 L219,107 L219,163.062357 C219,173.379008 227.373083,181.752091 237.686312,181.752091 L293.748669,181.752091 L293.748669,144.376045 L256.376045,144.376045 L256.376045,107 Z" id="Path" fill="#000000"></path>
        <path d="M368.376045,144.376045 L368.376045,107 L331,107 L331,163.062357 C331,173.379008 339.352553,181.752091 349.689734,181.752091 L405.752091,181.752091 L405.752091,144.376045 L368.376045,144.376045 Z" id="Path" fill="#000000"></path>
        <path d="M144.376045,219 L107,219 L107,275.062357 C107,285.379008 115.373083,293.752091 125.689734,293.752091 L181.752091,293.752091 L181.752091,256.376045 L144.376045,256.376045 L144.376045,219 Z" id="Path" fill="#000000"></path>
        <path d="M256.376045,219 L219,219 L219,275.062357 C219,285.379008 227.373083,293.752091 237.686312,293.752091 L293.748669,293.752091 L293.748669,256.376045 L256.376045,256.376045 L256.376045,219 Z" id="Path" fill="#000000"></path>
        <path d="M368.376045,219 L331,219 L331,275.062357 C331,285.379008 339.352553,293.752091 349.689734,293.752091 L405.752091,293.752091 L405.752091,256.376045 L368.376045,256.376045 L368.376045,219 Z" id="Path" fill="#000000"></path>
        <path d="M144.376045,331 L107,331 L107,387.062357 C107,397.379008 115.373083,405.752091 125.689734,405.752091 L181.752091,405.752091 L181.752091,368.376045 L144.376045,368.376045 L144.376045,331 Z" id="Path" fill="#000000"></path>
        <path d="M256.376045,331 L219,331 L219,387.062357 C219,397.379008 227.373083,405.752091 237.686312,405.752091 L293.748669,405.752091 L293.748669,368.376045 L256.376045,368.376045 L256.376045,331 Z" id="Path" fill="#000000"></path>
        <path d="M368.376045,331 L331,331 L331,387.062357 C331,397.379008 339.352553,405.752091 349.689734,405.752091 L405.752091,405.752091 L405.752091,368.376045 L368.376045,368.376045 L368.376045,331 Z" id="Path" fill="#000000"></path>
    </g>
</svg>